<svg width="151" height="22" viewBox="0 0 151 22" fill="none" xmlns="http://www.w3.org/2000/svg">
<path d="M7.19531 0.199999C8.69931 0.199999 9.98731 0.575999 11.0593 1.328C12.1473 2.064 12.9713 3.072 13.5313 4.352C14.1073 5.616 14.3953 7.032 14.3953 8.6C14.3953 10.168 14.1073 11.592 13.5313 12.872C12.9713 14.136 12.1473 15.144 11.0593 15.896C9.98731 16.632 8.69931 17 7.19531 17H1.45931C1.04331 17 0.691313 16.864 0.403313 16.592C0.131313 16.304 -0.00468743 15.952 -0.00468743 15.536V1.664C-0.00468743 1.248 0.131313 0.903999 0.403313 0.631999C0.691313 0.343999 1.04331 0.199999 1.45931 0.199999H7.19531ZM6.95531 14.24C8.39531 14.24 9.47531 13.712 10.1953 12.656C10.9153 11.584 11.2753 10.232 11.2753 8.6C11.2753 6.968 10.9073 5.624 10.1713 4.568C9.45131 3.496 8.37931 2.96 6.95531 2.96H2.99531V14.24H6.95531ZM28.6191 10.28C28.6031 10.664 28.4511 10.976 28.1631 11.216C27.8751 11.456 27.5391 11.576 27.1551 11.576H19.2351C19.4271 12.52 19.8671 13.264 20.5551 13.808C21.2431 14.336 22.0191 14.6 22.8831 14.6C23.5391 14.6 24.0511 14.544 24.4191 14.432C24.7871 14.304 25.0751 14.176 25.2831 14.048C25.5071 13.904 25.6591 13.808 25.7391 13.76C26.0271 13.616 26.2991 13.544 26.5551 13.544C26.8911 13.544 27.1791 13.664 27.4191 13.904C27.6591 14.144 27.7791 14.424 27.7791 14.744C27.7791 15.176 27.5551 15.568 27.1071 15.92C26.6591 16.288 26.0591 16.6 25.3071 16.856C24.5551 17.112 23.7951 17.24 23.0271 17.24C21.6831 17.24 20.5071 16.96 19.4991 16.4C18.5071 15.84 17.7391 15.072 17.1951 14.096C16.6511 13.104 16.3791 11.992 16.3791 10.76C16.3791 9.384 16.6671 8.176 17.2431 7.136C17.8191 6.096 18.5791 5.304 19.5231 4.76C20.4671 4.2 21.4751 3.92 22.5471 3.92C23.6031 3.92 24.5951 4.208 25.5231 4.784C26.4671 5.36 27.2191 6.136 27.7791 7.112C28.3391 8.088 28.6191 9.144 28.6191 10.28ZM22.5471 6.56C20.6911 6.56 19.5951 7.432 19.2591 9.176H25.5471V9.008C25.4831 8.336 25.1551 7.76 24.5631 7.28C23.9711 6.8 23.2991 6.56 22.5471 6.56ZM37.6689 3.92C38.7729 3.92 39.7729 4.208 40.6689 4.784C41.5649 5.344 42.2689 6.128 42.7809 7.136C43.3089 8.144 43.5729 9.288 43.5729 10.568C43.5729 11.848 43.3169 13 42.8049 14.024C42.2929 15.032 41.5889 15.824 40.6929 16.4C39.8129 16.96 38.8369 17.24 37.7649 17.24C36.9969 17.24 36.2689 17.088 35.5809 16.784C34.9089 16.464 34.3489 16.08 33.9009 15.632V20.336C33.9009 20.752 33.7649 21.096 33.4929 21.368C33.2209 21.656 32.8769 21.8 32.4609 21.8C32.0449 21.8 31.7009 21.664 31.4289 21.392C31.1569 21.12 31.0209 20.768 31.0209 20.336V5.624C31.0209 5.208 31.1569 4.864 31.4289 4.592C31.7009 4.304 32.0449 4.16 32.4609 4.16C32.8769 4.16 33.2209 4.304 33.4929 4.592C33.7649 4.864 33.9009 5.208 33.9009 5.624V5.72C34.2849 5.24 34.8209 4.824 35.5089 4.472C36.1969 4.104 36.9169 3.92 37.6689 3.92ZM37.3089 14.6C38.3329 14.6 39.1729 14.216 39.8289 13.448C40.4849 12.68 40.8129 11.72 40.8129 10.568C40.8129 9.416 40.4849 8.464 39.8289 7.712C39.1889 6.944 38.3489 6.56 37.3089 6.56C36.2689 6.56 35.4209 6.944 34.7649 7.712C34.1089 8.464 33.7809 9.416 33.7809 10.568C33.7809 11.72 34.1089 12.68 34.7649 13.448C35.4209 14.216 36.2689 14.6 37.3089 14.6ZM56.3661 3.92C56.7821 3.92 57.1261 4.056 57.3981 4.328C57.6701 4.6 57.8061 4.952 57.8061 5.384V15.536C57.8061 15.952 57.6701 16.304 57.3981 16.592C57.1261 16.864 56.7821 17 56.3661 17C55.9501 17 55.6061 16.864 55.3341 16.592C55.0781 16.32 54.9421 15.976 54.9261 15.56C54.5261 16.024 53.9821 16.424 53.2941 16.76C52.6221 17.08 51.9101 17.24 51.1581 17.24C50.0541 17.24 49.0541 16.96 48.1581 16.4C47.2621 15.824 46.5501 15.032 46.0221 14.024C45.5101 13.016 45.2541 11.872 45.2541 10.592C45.2541 9.312 45.5101 8.168 46.0221 7.16C46.5341 6.136 47.2301 5.344 48.1101 4.784C49.0061 4.208 49.9901 3.92 51.0621 3.92C51.8301 3.92 52.5501 4.064 53.2221 4.352C53.8941 4.624 54.4621 4.976 54.9261 5.408V5.384C54.9261 4.968 55.0621 4.624 55.3341 4.352C55.6061 4.064 55.9501 3.92 56.3661 3.92ZM51.5181 14.6C52.5581 14.6 53.4061 14.224 54.0621 13.472C54.7181 12.704 55.0461 11.744 55.0461 10.592C55.0461 9.44 54.7181 8.48 54.0621 7.712C53.4061 6.944 52.5581 6.56 51.5181 6.56C50.4941 6.56 49.6541 6.944 48.9981 7.712C48.3421 8.48 48.0141 9.44 48.0141 10.592C48.0141 11.744 48.3341 12.704 48.9741 13.472C49.6301 14.224 50.4781 14.6 51.5181 14.6ZM67.5992 3.92C68.0792 3.92 68.4792 4.056 68.7992 4.328C69.1352 4.6 69.3032 4.92 69.3032 5.288C69.3032 5.784 69.1752 6.16 68.9192 6.416C68.6632 6.656 68.3592 6.776 68.0072 6.776C67.7672 6.776 67.4952 6.72 67.1912 6.608C67.1432 6.592 67.0312 6.56 66.8552 6.512C66.6952 6.464 66.5192 6.44 66.3272 6.44C65.9112 6.44 65.5112 6.568 65.1272 6.824C64.7432 7.08 64.4232 7.472 64.1672 8C63.9272 8.512 63.8072 9.128 63.8072 9.848V15.536C63.8072 15.952 63.6712 16.304 63.3992 16.592C63.1272 16.864 62.7832 17 62.3672 17C61.9512 17 61.6072 16.864 61.3352 16.592C61.0632 16.304 60.9272 15.952 60.9272 15.536V5.624C60.9272 5.208 61.0632 4.864 61.3352 4.592C61.6072 4.304 61.9512 4.16 62.3672 4.16C62.7832 4.16 63.1272 4.304 63.3992 4.592C63.6712 4.864 63.8072 5.208 63.8072 5.624V5.936C64.1752 5.28 64.7032 4.784 65.3912 4.448C66.0792 4.096 66.8152 3.92 67.5992 3.92ZM77.5254 14.288C77.7494 14.288 77.9494 14.4 78.1254 14.624C78.3174 14.832 78.4134 15.112 78.4134 15.464C78.4134 15.896 78.1734 16.264 77.6934 16.568C77.2294 16.856 76.7014 17 76.1094 17C75.1174 17 74.2774 16.792 73.5894 16.376C72.9174 15.944 72.5814 15.04 72.5814 13.664V7.04H71.4774C71.0934 7.04 70.7734 6.912 70.5174 6.656C70.2614 6.4 70.1334 6.08 70.1334 5.696C70.1334 5.328 70.2614 5.024 70.5174 4.784C70.7734 4.528 71.0934 4.4 71.4774 4.4H72.5814V2.864C72.5814 2.448 72.7174 2.104 72.9894 1.832C73.2774 1.544 73.6294 1.4 74.0454 1.4C74.4454 1.4 74.7814 1.544 75.0534 1.832C75.3254 2.104 75.4614 2.448 75.4614 2.864V4.4H77.1654C77.5494 4.4 77.8694 4.528 78.1254 4.784C78.3814 5.04 78.5094 5.36 78.5094 5.744C78.5094 6.112 78.3814 6.424 78.1254 6.68C77.8694 6.92 77.5494 7.04 77.1654 7.04H75.4614V13.544C75.4614 13.88 75.5494 14.128 75.7254 14.288C75.9014 14.432 76.1414 14.504 76.4454 14.504C76.5734 14.504 76.7494 14.472 76.9734 14.408C77.1654 14.328 77.3494 14.288 77.5254 14.288ZM95.9618 3.92C97.5458 3.92 98.6418 4.408 99.2498 5.384C99.8578 6.344 100.162 7.68 100.162 9.392V15.536C100.162 15.952 100.026 16.304 99.7538 16.592C99.4818 16.864 99.1378 17 98.7218 17C98.3058 17 97.9618 16.864 97.6898 16.592C97.4178 16.304 97.2818 15.952 97.2818 15.536V9.392C97.2818 8.512 97.1058 7.824 96.7538 7.328C96.4178 6.816 95.8178 6.56 94.9538 6.56C94.0578 6.56 93.3538 6.832 92.8418 7.376C92.3458 7.904 92.0978 8.576 92.0978 9.392V15.536C92.0978 15.952 91.9618 16.304 91.6898 16.592C91.4178 16.864 91.0738 17 90.6578 17C90.2418 17 89.8978 16.864 89.6258 16.592C89.3538 16.304 89.2178 15.952 89.2178 15.536V9.392C89.2178 8.512 89.0418 7.824 88.6898 7.328C88.3538 6.816 87.7538 6.56 86.8898 6.56C85.9938 6.56 85.2898 6.832 84.7778 7.376C84.2818 7.904 84.0338 8.576 84.0338 9.392V15.536C84.0338 15.952 83.8978 16.304 83.6258 16.592C83.3538 16.864 83.0098 17 82.5938 17C82.1778 17 81.8338 16.864 81.5618 16.592C81.2898 16.304 81.1538 15.952 81.1538 15.536V5.624C81.1538 5.208 81.2898 4.864 81.5618 4.592C81.8338 4.304 82.1778 4.16 82.5938 4.16C83.0098 4.16 83.3538 4.304 83.6258 4.592C83.8978 4.864 84.0338 5.208 84.0338 5.624V6.008C84.4658 5.432 85.0098 4.944 85.6658 4.544C86.3378 4.128 87.0818 3.92 87.8978 3.92C89.9138 3.92 91.2018 4.8 91.7618 6.56C92.1298 5.888 92.6818 5.28 93.4178 4.736C94.1698 4.192 95.0178 3.92 95.9618 3.92ZM114.799 10.28C114.783 10.664 114.631 10.976 114.343 11.216C114.055 11.456 113.719 11.576 113.335 11.576H105.415C105.607 12.52 106.047 13.264 106.735 13.808C107.423 14.336 108.199 14.6 109.063 14.6C109.719 14.6 110.231 14.544 110.599 14.432C110.967 14.304 111.255 14.176 111.463 14.048C111.687 13.904 111.839 13.808 111.919 13.76C112.207 13.616 112.479 13.544 112.735 13.544C113.071 13.544 113.359 13.664 113.599 13.904C113.839 14.144 113.959 14.424 113.959 14.744C113.959 15.176 113.735 15.568 113.287 15.92C112.839 16.288 112.239 16.6 111.487 16.856C110.735 17.112 109.975 17.24 109.207 17.24C107.863 17.24 106.687 16.96 105.679 16.4C104.687 15.84 103.919 15.072 103.375 14.096C102.831 13.104 102.559 11.992 102.559 10.76C102.559 9.384 102.847 8.176 103.423 7.136C103.999 6.096 104.759 5.304 105.703 4.76C106.647 4.2 107.655 3.92 108.727 3.92C109.783 3.92 110.775 4.208 111.703 4.784C112.647 5.36 113.399 6.136 113.959 7.112C114.519 8.088 114.799 9.144 114.799 10.28ZM108.727 6.56C106.871 6.56 105.775 7.432 105.439 9.176H111.727V9.008C111.663 8.336 111.335 7.76 110.743 7.28C110.151 6.8 109.479 6.56 108.727 6.56ZM124.065 3.92C125.697 3.92 126.825 4.408 127.449 5.384C128.073 6.344 128.385 7.68 128.385 9.392V15.536C128.385 15.952 128.249 16.304 127.977 16.592C127.705 16.864 127.361 17 126.945 17C126.529 17 126.185 16.864 125.913 16.592C125.641 16.304 125.505 15.952 125.505 15.536V9.392C125.505 8.512 125.321 7.824 124.953 7.328C124.585 6.816 123.953 6.56 123.057 6.56C122.129 6.56 121.401 6.832 120.873 7.376C120.345 7.904 120.081 8.576 120.081 9.392V15.536C120.081 15.952 119.945 16.304 119.673 16.592C119.401 16.864 119.057 17 118.641 17C118.225 17 117.881 16.864 117.609 16.592C117.337 16.304 117.201 15.952 117.201 15.536V5.624C117.201 5.208 117.337 4.864 117.609 4.592C117.881 4.304 118.225 4.16 118.641 4.16C119.057 4.16 119.401 4.304 119.673 4.592C119.945 4.864 120.081 5.208 120.081 5.624V6.032C120.513 5.456 121.073 4.96 121.761 4.544C122.465 4.128 123.233 3.92 124.065 3.92ZM137.69 14.288C137.914 14.288 138.114 14.4 138.29 14.624C138.482 14.832 138.578 15.112 138.578 15.464C138.578 15.896 138.338 16.264 137.858 16.568C137.394 16.856 136.866 17 136.273 17C135.282 17 134.442 16.792 133.754 16.376C133.082 15.944 132.746 15.04 132.746 13.664V7.04H131.642C131.258 7.04 130.938 6.912 130.682 6.656C130.426 6.4 130.298 6.08 130.298 5.696C130.298 5.328 130.426 5.024 130.682 4.784C130.938 4.528 131.258 4.4 131.642 4.4H132.746V2.864C132.746 2.448 132.882 2.104 133.154 1.832C133.442 1.544 133.794 1.4 134.21 1.4C134.61 1.4 134.946 1.544 135.218 1.832C135.49 2.104 135.626 2.448 135.626 2.864V4.4H137.33C137.714 4.4 138.034 4.528 138.29 4.784C138.546 5.04 138.674 5.36 138.674 5.744C138.674 6.112 138.546 6.424 138.29 6.68C138.034 6.92 137.714 7.04 137.33 7.04H135.626V13.544C135.626 13.88 135.714 14.128 135.89 14.288C136.066 14.432 136.306 14.504 136.61 14.504C136.738 14.504 136.914 14.472 137.138 14.408C137.33 14.328 137.514 14.288 137.69 14.288ZM141.043 15.008C140.899 14.816 140.827 14.576 140.827 14.288C140.827 13.872 141.035 13.52 141.451 13.232C141.675 13.088 141.907 13.016 142.147 13.016C142.483 13.016 142.803 13.168 143.107 13.472C143.587 13.968 144.083 14.336 144.595 14.576C145.123 14.816 145.755 14.936 146.491 14.936C147.739 14.888 148.363 14.416 148.363 13.52C148.363 13.056 148.147 12.704 147.715 12.464C147.299 12.224 146.643 11.984 145.747 11.744C144.819 11.488 144.059 11.232 143.467 10.976C142.891 10.72 142.387 10.336 141.955 9.824C141.539 9.296 141.331 8.592 141.331 7.712C141.331 6.944 141.547 6.28 141.979 5.72C142.427 5.144 143.003 4.704 143.707 4.4C144.427 4.08 145.187 3.92 145.987 3.92C146.803 3.92 147.619 4.072 148.435 4.376C149.251 4.68 149.891 5.128 150.355 5.72C150.563 5.976 150.667 6.264 150.667 6.584C150.667 6.952 150.515 7.256 150.211 7.496C149.987 7.672 149.731 7.76 149.443 7.76C149.091 7.76 148.803 7.648 148.579 7.424C148.291 7.072 147.915 6.792 147.451 6.584C147.003 6.376 146.491 6.272 145.915 6.272C144.699 6.272 144.091 6.712 144.091 7.592C144.091 7.944 144.203 8.232 144.427 8.456C144.651 8.664 144.931 8.832 145.267 8.96C145.619 9.072 146.107 9.216 146.731 9.392C147.595 9.632 148.315 9.88 148.891 10.136C149.467 10.392 149.955 10.784 150.355 11.312C150.755 11.84 150.955 12.536 150.955 13.4C150.955 14.184 150.723 14.872 150.259 15.464C149.795 16.04 149.195 16.48 148.459 16.784C147.739 17.088 146.995 17.24 146.227 17.24C145.171 17.24 144.187 17.064 143.275 16.712C142.363 16.36 141.619 15.792 141.043 15.008Z" fill="#2264D1"/>
</svg>
