<svg width="49" height="14" viewBox="0 0 49 14" fill="none" xmlns="http://www.w3.org/2000/svg">
<path d="M6.0625 6.18652H2.125V8.85254H6.74609V10.5H0.0742188V0.546875H6.73242V2.20801H2.125V4.58008H6.0625V6.18652ZM11.3857 5.31152L12.6299 3.10352H14.7422L12.6367 6.72656L14.8311 10.5H12.7119L11.3926 8.17578L10.0801 10.5H7.9541L10.1484 6.72656L8.0498 3.10352H10.1689L11.3857 5.31152ZM23.1006 6.87012C23.1006 8.00944 22.8408 8.92318 22.3213 9.61133C21.8063 10.2949 21.109 10.6367 20.2295 10.6367C19.4821 10.6367 18.8783 10.377 18.418 9.85742V13.3438H16.4424V3.10352H18.2744L18.3428 3.82812C18.8213 3.25391 19.4456 2.9668 20.2158 2.9668C21.1273 2.9668 21.8359 3.30404 22.3418 3.97852C22.8477 4.65299 23.1006 5.58268 23.1006 6.76758V6.87012ZM21.125 6.72656C21.125 6.03841 21.002 5.50749 20.7559 5.13379C20.5143 4.76009 20.1611 4.57324 19.6963 4.57324C19.0765 4.57324 18.6504 4.81022 18.418 5.28418V8.3125C18.6595 8.80013 19.0902 9.04395 19.71 9.04395C20.6533 9.04395 21.125 8.27148 21.125 6.72656ZM29.3672 10.5C29.276 10.3223 29.21 10.1012 29.1689 9.83691C28.6904 10.3701 28.0684 10.6367 27.3027 10.6367C26.5781 10.6367 25.9766 10.4271 25.498 10.0078C25.0241 9.58854 24.7871 9.0599 24.7871 8.42188C24.7871 7.63802 25.0765 7.03646 25.6553 6.61719C26.2386 6.19792 27.0794 5.986 28.1777 5.98145H29.0869V5.55762C29.0869 5.21582 28.998 4.94238 28.8203 4.7373C28.6471 4.53223 28.3714 4.42969 27.9932 4.42969C27.6605 4.42969 27.3984 4.50944 27.207 4.66895C27.0202 4.82845 26.9268 5.0472 26.9268 5.3252H24.9512C24.9512 4.89681 25.0833 4.50033 25.3477 4.13574C25.612 3.77116 25.9857 3.48633 26.4688 3.28125C26.9518 3.07161 27.4941 2.9668 28.0957 2.9668C29.0072 2.9668 29.7295 3.19694 30.2627 3.65723C30.8005 4.11296 31.0693 4.75553 31.0693 5.58496V8.79102C31.0739 9.49284 31.1719 10.0238 31.3633 10.3838V10.5H29.3672ZM27.7334 9.12598C28.0251 9.12598 28.2939 9.06217 28.54 8.93457C28.7861 8.80241 28.9684 8.62695 29.0869 8.4082V7.13672H28.3486C27.3597 7.13672 26.8333 7.47852 26.7695 8.16211L26.7627 8.27832C26.7627 8.52441 26.8493 8.72721 27.0225 8.88672C27.1956 9.04622 27.4326 9.12598 27.7334 9.12598ZM35.1553 3.10352L35.2168 3.95801C35.7454 3.2972 36.4541 2.9668 37.3428 2.9668C38.1266 2.9668 38.71 3.19694 39.0928 3.65723C39.4756 4.11751 39.6715 4.80566 39.6807 5.72168V10.5H37.7051V5.76953C37.7051 5.35026 37.6139 5.0472 37.4316 4.86035C37.2493 4.66895 36.9463 4.57324 36.5225 4.57324C35.9665 4.57324 35.5495 4.81022 35.2715 5.28418V10.5H33.2959V3.10352H35.1553ZM41.627 6.74707C41.627 5.59408 41.8844 4.67578 42.3994 3.99219C42.9189 3.30859 43.6276 2.9668 44.5254 2.9668C45.2454 2.9668 45.8402 3.23568 46.3096 3.77344V0H48.292V10.5H46.5078L46.4121 9.71387C45.9199 10.3291 45.2865 10.6367 44.5117 10.6367C43.6413 10.6367 42.9417 10.2949 42.4131 9.61133C41.889 8.92318 41.627 7.96842 41.627 6.74707ZM43.6025 6.89062C43.6025 7.58333 43.7233 8.11426 43.9648 8.4834C44.2064 8.85254 44.5573 9.03711 45.0176 9.03711C45.6283 9.03711 46.0589 8.77962 46.3096 8.26465V5.3457C46.0635 4.83073 45.6374 4.57324 45.0312 4.57324C44.0788 4.57324 43.6025 5.3457 43.6025 6.89062Z" fill="#2264D1"/>
</svg>
