<svg className="absolute right-3 h-5 w-5 text-gray-400" width="16" height="16" viewBox="0 0 16 16" fill="none" xmlns="http://www.w3.org/2000/svg">
          <path d="M9.68668 6.31334L6.31334 9.68668C5.88001 9.25334 5.61334 8.66001 5.61334 8.00001C5.61334 6.68001 6.68001 5.61334 8.00001 5.61334C8.66001 5.61334 9.25334 5.88001 9.68668 6.31334Z" stroke="#6D6F81" stroke-width="1.5" stroke-linecap="round" stroke-linejoin="round" />
          <path d="M11.88 3.84666C10.7133 2.96666 9.37999 2.48666 7.99999 2.48666C5.64665 2.48666 3.45332 3.87333 1.92665 6.27333C1.32665 7.21333 1.32665 8.79333 1.92665 9.73333C2.45332 10.56 3.06665 11.2733 3.73332 11.8467" stroke="#6D6F81" stroke-width="1.5" stroke-linecap="round" stroke-linejoin="round" />
          <path d="M5.61334 13.02C6.37334 13.34 7.18001 13.5133 8.00001 13.5133C10.3533 13.5133 12.5467 12.1267 14.0733 9.72665C14.6733 8.78665 14.6733 7.20665 14.0733 6.26665C13.8533 5.91998 13.6133 5.59332 13.3667 5.28665" stroke="#6D6F81" stroke-width="1.5" stroke-linecap="round" stroke-linejoin="round" />
          <path d="M10.34 8.46667C10.1667 9.40668 9.39999 10.1733 8.45999 10.3467" stroke="#6D6F81" stroke-width="1.5" stroke-linecap="round" stroke-linejoin="round" />
          <path d="M6.31334 9.68668L1.33334 14.6667" stroke="#6D6F81" stroke-width="1.5" stroke-linecap="round" stroke-linejoin="round" />
          <path d="M14.6667 1.33334L9.68668 6.31334" stroke="#6D6F81" stroke-width="1.5" stroke-linecap="round" stroke-linejoin="round" />
        </svg>