<svg xmlns="http://www.w3.org/2000/svg" width="150" height="28" viewBox="0 0 150 28" fill="none">
    <path d="M12.7119 10.5634C12.7119 15.0797 3.4777 25.4545 1.89908 25.4545C1.54474 25.4545 1.27118 25.1717 1.27118 24.826C1.27118 22.541 8.13292 15.5376 8.13292 11.0573C8.13292 5.93939 2.41035 4.60607 2.41035 3.23681C2.41035 2.94501 2.70635 2.54995 3.15482 2.54995C4.50921 2.54546 12.7119 5.91695 12.7119 10.5634Z" fill="#E31931" />
    <path d="M21.8652 10.5634C21.8652 15.0797 12.631 25.4545 11.0524 25.4545C10.6981 25.4545 10.4245 25.1717 10.4245 24.826C10.4245 22.541 17.2862 15.5376 17.2862 11.0573C17.2862 5.93939 11.5637 4.60607 11.5637 3.23681C11.5637 2.94501 11.8596 2.54995 12.3081 2.54995C13.6625 2.54546 21.8652 5.91695 21.8652 10.5634Z" fill="black" />
    <path d="M24.1526 17.4366C24.1526 12.9158 33.3868 2.54546 34.9654 2.54546C35.3197 2.54546 35.5933 2.82828 35.5933 3.17396C35.5933 5.45903 28.7315 12.4624 28.7315 16.9427C28.7315 22.0606 34.4542 23.3939 34.4542 24.7632C34.4542 25.055 34.1582 25.4501 33.7097 25.4501C32.3553 25.4501 24.1526 22.083 24.1526 17.4366Z" fill="black" />
</svg>
